HIERARCHY
ROOT Hips
{
  OFFSET 5.72205e-005 65.662 3.42586
  CHANNELS 6 Xposition Yposition Zposition Zrotation Xrotation Yrotation
  JOINT Chest
  {
    OFFSET 0 8.7983 -4.7612
    CHANNELS 3 Zrotation Xrotation Yrotation
    JOINT Chest2
    {
      OFFSET 0 8.0291 0.4195
      CHANNELS 3 Zrotation Xrotation Yrotation
      JOINT Chest3
      {
        OFFSET 0 9.9351 -2.2114
        CHANNELS 3 Zrotation Xrotation Yrotation
        JOINT Neck
        {
          OFFSET 0 22.3885 -0.4656
          CHANNELS 3 Zrotation Xrotation Yrotation
          JOINT Head
          {
            OFFSET -0.0001 12.643 3.4389
            CHANNELS 3 Zrotation Xrotation Yrotation
            End Site
            {
              OFFSET 0.0001 17.6655 0.5274
            }
          }
        }
        JOINT LeftCollar
        {
          OFFSET 2.2603 21.606 7.4023
          CHANNELS 3 Zrotation Xrotation Yrotation
          JOINT LeftShoulder
          {
            OFFSET 13.5163 -1.1332 -5.0146
            CHANNELS 3 Zrotation Xrotation Yrotation
            JOINT LeftElbow
            {
              OFFSET -0.0995 -28.05 -0.2431
              CHANNELS 3 Zrotation Xrotation Yrotation
              JOINT LeftWrist
              {
                OFFSET 0.0679 -23.3996 -0.1402
                CHANNELS 3 Zrotation Xrotation Yrotation
                JOINT LeftFinger1
                {
                  OFFSET 0.7932 -9.069 2.5189
                  CHANNELS 3 Zrotation Xrotation Yrotation
                  JOINT LeftFinger11
                  {
                    OFFSET -0.8272 -3.3923 0.5977
                    CHANNELS 3 Zrotation Xrotation Yrotation
                    JOINT LeftFinger12
                    {
                      OFFSET -0.5649 -2.3158 0.4082
                      CHANNELS 3 Zrotation Xrotation Yrotation
                      End Site
                      {
                        OFFSET -0.4919 -1.6479 0.2673
                      }
                    }
                  }
                }
                JOINT LeftFinger2
                {
                  OFFSET 0.9159 -9.2044 0.2193
                  CHANNELS 3 Zrotation Xrotation Yrotation
                  JOINT LeftFinger21
                  {
                    OFFSET 0.0117 -4.1944 -0.0248
                    CHANNELS 3 Zrotation Xrotation Yrotation
                    JOINT LeftFinger22
                    {
                      OFFSET 0.0071 -2.3249 -0.0142
                      CHANNELS 3 Zrotation Xrotation Yrotation
                      End Site
                      {
                        OFFSET -0.1475 -2.0882 0.0028
                      }
                    }
                  }
                }
                JOINT LeftFinger3
                {
                  OFFSET 0.6113 -8.7231 -2.0637
                  CHANNELS 3 Zrotation Xrotation Yrotation
                  JOINT LeftFinger31
                  {
                    OFFSET -0.1927 -3.8059 -0.2383
                    CHANNELS 3 Zrotation Xrotation Yrotation
                    JOINT LeftFinger32
                    {
                      OFFSET -0.1091 -2.1688 -0.1362
                      CHANNELS 3 Zrotation Xrotation Yrotation
                      End Site
                      {
                        OFFSET -0.2358 -1.9176 -0.0906
                      }
                    }
                  }
                }
                JOINT LeftFinger4
                {
                  OFFSET -0.6151 -8.0947 -3.5641
                  CHANNELS 3 Zrotation Xrotation Yrotation
                  JOINT LeftFinger41
                  {
                    OFFSET -0.4882 -2.341 -0.6462
                    CHANNELS 3 Zrotation Xrotation Yrotation
                    JOINT LeftFinger42
                    {
                      OFFSET -0.3575 -1.7167 -0.4742
                      CHANNELS 3 Zrotation Xrotation Yrotation
                      End Site
                      {
                        OFFSET -0.4187 -1.5237 -0.3496
                      }
                    }
                  }
                }
                JOINT LeftFinger0
                {
                  OFFSET -1.42 -1.8761 1.4223
                  CHANNELS 3 Zrotation Xrotation Yrotation
                  JOINT LeftFinger01
                  {
                    OFFSET -1.1471 -3.4929 2.6334
                    CHANNELS 3 Zrotation Xrotation Yrotation
                    JOINT LeftFinger02
                    {
                      OFFSET -0.823 -2.3 1.6571
                      CHANNELS 3 Zrotation Xrotation Yrotation
                      End Site
                      {
                        OFFSET -0.5822 -1.6914 1.1582
                      }
                    }
                  }
                }
              }
            }
          }
        }
        JOINT RightCollar
        {
          OFFSET -2.2603 21.606 7.4023
          CHANNELS 3 Zrotation Xrotation Yrotation
          JOINT RightShoulder
          {
            OFFSET -13.5187 -1.1334 -5.0155
            CHANNELS 3 Zrotation Xrotation Yrotation
            JOINT RightElbow
            {
              OFFSET 0.0994 -28.0499 -0.2431
              CHANNELS 3 Zrotation Xrotation Yrotation
              JOINT RightWrist
              {
                OFFSET -0.0679 -23.3996 -0.1402
                CHANNELS 3 Zrotation Xrotation Yrotation
                JOINT RightFinger1
                {
                  OFFSET -0.7932 -9.0691 2.5189
                  CHANNELS 3 Zrotation Xrotation Yrotation
                  JOINT RightFinger11
                  {
                    OFFSET 0.8272 -3.3923 0.5977
                    CHANNELS 3 Zrotation Xrotation Yrotation
                    JOINT RightFinger12
                    {
                      OFFSET 0.565 -2.3158 0.4082
                      CHANNELS 3 Zrotation Xrotation Yrotation
                      End Site
                      {
                        OFFSET 0.4919 -1.6479 0.2673
                      }
                    }
                  }
                }
                JOINT RightFinger2
                {
                  OFFSET -0.916 -9.2044 0.2193
                  CHANNELS 3 Zrotation Xrotation Yrotation
                  JOINT RightFinger21
                  {
                    OFFSET -0.0117 -4.1944 -0.0248
                    CHANNELS 3 Zrotation Xrotation Yrotation
                    JOINT RightFinger22
                    {
                      OFFSET -0.0071 -2.3249 -0.0142
                      CHANNELS 3 Zrotation Xrotation Yrotation
                      End Site
                      {
                        OFFSET 0.1475 -2.0882 0.0028
                      }
                    }
                  }
                }
                JOINT RightFinger3
                {
                  OFFSET -0.6113 -8.7231 -2.0637
                  CHANNELS 3 Zrotation Xrotation Yrotation
                  JOINT RightFinger31
                  {
                    OFFSET 0.1927 -3.8059 -0.2383
                    CHANNELS 3 Zrotation Xrotation Yrotation
                    JOINT RightFinger32
                    {
                      OFFSET 0.1091 -2.1688 -0.1362
                      CHANNELS 3 Zrotation Xrotation Yrotation
                      End Site
                      {
                        OFFSET 0.2358 -1.9176 -0.0906
                      }
                    }
                  }
                }
                JOINT RightFinger4
                {
                  OFFSET 0.6151 -8.0947 -3.564
                  CHANNELS 3 Zrotation Xrotation Yrotation
                  JOINT RightFinger41
                  {
                    OFFSET 0.4882 -2.341 -0.6462
                    CHANNELS 3 Zrotation Xrotation Yrotation
                    JOINT RightFinger42
                    {
                      OFFSET 0.3574 -1.7166 -0.4742
                      CHANNELS 3 Zrotation Xrotation Yrotation
                      End Site
                      {
                        OFFSET 0.4187 -1.5237 -0.3496
                      }
                    }
                  }
                }
                JOINT RightFinger0
                {
                  OFFSET 1.4199 -1.8761 1.4221
                  CHANNELS 3 Zrotation Xrotation Yrotation
                  JOINT RightFinger01
                  {
                    OFFSET 1.1472 -3.4929 2.6336
                    CHANNELS 3 Zrotation Xrotation Yrotation
                    JOINT RightFinger02
                    {
                      OFFSET 0.8229 -2.3 1.6571
                      CHANNELS 3 Zrotation Xrotation Yrotation
                      End Site
                      {
                        OFFSET 0.5822 -1.6914 1.1582
                      }
                    }
                  }
                }
              }
            }
          }
        }
      }
    }
  }
  JOINT RightHip
  {
    OFFSET -9.412 3.9771 -0.7758
    CHANNELS 3 Zrotation Xrotation Yrotation
    JOINT RightKnee
    {
      OFFSET -0.7531 -40.938 0
      CHANNELS 3 Zrotation Xrotation Yrotation
      JOINT RightAnkle
      {
        OFFSET 0 -40.1986 0
        CHANNELS 3 Zrotation Xrotation Yrotation
        JOINT RightToe
        {
          OFFSET 0 -4.4182 9.239
          CHANNELS 3 Zrotation Xrotation Yrotation
          End Site
          {
            OFFSET 0 0 6.1981
          }
        }
      }
    }
  }
  JOINT LeftHip
  {
    OFFSET 9.4119 3.9773 -0.7758
    CHANNELS 3 Zrotation Xrotation Yrotation
    JOINT LeftKnee
    {
      OFFSET 0.7532 -40.9383 0
      CHANNELS 3 Zrotation Xrotation Yrotation
      JOINT LeftAnkle
      {
        OFFSET 0 -40.1986 0
        CHANNELS 3 Zrotation Xrotation Yrotation
        JOINT LeftToe
        {
          OFFSET 0 -4.4182 9.239
          CHANNELS 3 Zrotation Xrotation Yrotation
          End Site
          {
            OFFSET 0 0 6.1981
          }
        }
      }
    }
  }
}
MOTION
Frames:	4
Frame Time:	0.0333333
1.64331 29.6804 -1.72805 1.19808e-007 28.9934 3.03511e-007 -0.294151 2.80265 -0.58525 -0.560596 5.60812 -1.15815 -0.560597 5.60813 -1.15816 -7.10666e-006 -19.0046 -8.52958e-006 1.7078e-007 14.9328 3.16887e-007 -13.4097 -6.38121 -29.2888 41.5512 -16.2179 19.6406 -82.0371 -33.4033 -54.085 52.4038 -21.4334 5.41239 -1.59028e-015 -3.18055e-015 -1.19271e-015 -1.59028e-015 -3.18055e-015 -7.95139e-016 -4.77083e-015 0 -2.38542e-015 -1.59028e-015 -3.18055e-015 -1.19271e-015 -0.0128409 0.00232951 7.95274e-005 6.36111e-015 3.18055e-015 1.59028e-015 -1.59028e-015 -3.18055e-015 -1.19271e-015 -0.0160509 0.003009 0.000855933 3.31043e-032 -4.77083e-015 3.97569e-016 -1.59028e-015 -3.18055e-015 -1.19271e-015 -0.0125962 0.00313599 0.00282408 -2.20695e-032 1.59028e-015 7.95139e-016 -1.59028e-015 -3.18055e-015 -1.19271e-015 -1.59028e-015 -3.18055e-015 -7.95139e-016 -4.77083e-015 0 -2.38542e-015 9.8986 -7.50971 22.4256 -39.4735 -17.1502 -15.6049 81.9174 -33.755 54.6025 -44.9977 -20.2499 -6.61825 2.45411e-006 6.94144e-007 3.09067e-006 4.41391e-032 -3.18055e-015 7.95139e-016 5.2071e-007 -1.13293e-005 -5.36743e-007 2.45411e-006 6.94144e-007 3.09067e-006 0.0129648 0.00232739 -8.91564e-005 2.4538e-006 9.8594e-007 3.09077e-006 2.45411e-006 6.94144e-007 3.09067e-006 0.0163538 0.00305455 -0.00088792 8.9561e-007 8.34125e-007 2.55863e-006 2.45411e-006 6.94144e-007 3.09067e-006 0.0145421 0.0036731 -0.00324702 -1.59028e-015 0 -2.38542e-015 2.45411e-006 6.94144e-007 3.09067e-006 4.41391e-032 -3.18055e-015 7.95139e-016 5.2071e-007 -1.13293e-005 -5.36743e-007 -8.88242 -30.7711 -19.7933 -173.556 76.8211 171.158 19.3741 43.2147 -27.3541 9.14509e-006 5.96557e-006 -1.52669e-006 8.69366 -30.6307 19.5783 174.054 77.0625 -171.568 -18.7349 42.1579 26.8031 4.12782e-007 -2.10868e-008 7.35338e-007 
1.6433 29.677 -1.87402 -6.56131e-009 28.9934 1.35366e-008 -0.29371 2.74409 -0.586442 -0.560214 5.491 -1.16077 -0.560216 5.49101 -1.16078 6.85992e-006 -19.0047 8.39812e-006 -1.62983e-008 15.0059 -2.59637e-007 -13.4097 -6.3813 -29.2888 41.5512 -16.2179 19.6406 -82.0372 -33.4033 -54.085 52.7117 -21.1609 5.67407 -3.31043e-032 1.59028e-015 1.19271e-015 -3.18055e-015 0 1.19271e-015 -1.59028e-015 -1.59028e-015 -3.97569e-016 -3.31043e-032 1.59028e-015 1.19271e-015 -0.0128332 0.0023177 8.2008e-005 6.36111e-015 0 1.98785e-015 -3.31043e-032 1.59028e-015 1.19271e-015 -0.0160494 0.00299769 0.000854822 -2.20695e-032 -1.59028e-015 -7.95139e-016 -3.31043e-032 1.59028e-015 1.19271e-015 -0.012558 0.00311141 0.00282337 1.59028e-015 0 1.19271e-015 -3.31043e-032 1.59028e-015 1.19271e-015 -3.18055e-015 0 1.19271e-015 -1.59028e-015 -1.59028e-015 -3.97569e-016 9.74454 -7.54228 22.5061 -39.5143 -17.3177 -15.6049 81.9174 -33.755 54.6025 -45.1446 -19.9698 -6.77301 9.21031e-007 -1.90495e-005 -1.16904e-006 -2.59455e-006 -5.77662e-007 -2.67552e-006 -1.27633e-005 -2.5911e-006 3.85874e-006 9.21031e-007 -1.90495e-005 -1.16904e-006 0.0129361 0.00232408 -9.32768e-005 -1.04133e-005 -1.36806e-005 3.06421e-006 9.21031e-007 -1.90495e-005 -1.16904e-006 0.0163387 0.00304533 -0.000887105 -1.25027e-005 1.55589e-005 -1.04337e-006 9.21031e-007 -1.90495e-005 -1.16904e-006 0.0145357 0.00369183 -0.00325838 -8.71258e-006 -4.63295e-006 -3.32438e-006 9.21031e-007 -1.90495e-005 -1.16904e-006 -2.59455e-006 -5.77662e-007 -2.67552e-006 -1.27633e-005 -2.5911e-006 3.85874e-006 -8.90601 -30.9698 -19.8381 -173.57 76.635 171.16 19.3821 43.208 -27.3642 3.97677e-007 6.36111e-015 7.43962e-007 8.71681 -30.8305 19.6234 174.06 76.8735 -171.562 -18.7425 42.151 26.8129 -1.24296e-006 -5.91853e-007 8.4544e-007 
1.6433 29.6736 -2.01999 1.42902e-008 28.9934 -7.82103e-009 -0.293264 2.68549 -0.587619 -0.559831 5.37381 -1.16338 -0.55983 5.37381 -1.16338 -1.54543e-005 -19.0045 -1.90182e-005 -8.43899e-007 15.079 -6.37249e-007 -13.4097 -6.38117 -29.2888 41.5512 -16.2179 19.6406 -82.0371 -33.4033 -54.0849 53.0177 -20.887 5.93373 1.59028e-015 3.18055e-015 1.59028e-015 1.59028e-015 3.18055e-015 1.19271e-015 -3.31043e-032 1.59028e-015 1.19271e-015 1.59028e-015 3.18055e-015 1.59028e-015 -0.0128221 0.00233673 8.34532e-005 4.77083e-015 3.18055e-015 1.59028e-015 1.59028e-015 3.18055e-015 1.59028e-015 -0.0160505 0.00300675 0.000857375 -0 0 3.57812e-015 1.59028e-015 3.18055e-015 1.59028e-015 -0.0125722 0.00311291 0.00282074 1.59028e-015 3.18055e-015 3.97569e-016 1.59028e-015 3.18055e-015 1.59028e-015 1.59028e-015 3.18055e-015 1.19271e-015 -3.31043e-032 1.59028e-015 1.19271e-015 9.59048 -7.57487 22.5865 -39.5555 -17.4854 -15.6052 81.9175 -33.755 54.6022 -45.2904 -19.6893 -6.92671 0 0 -2.38542e-015 -3.18055e-015 -9.54166e-015 -0 -4.77083e-015 0 -0 0 0 -2.38542e-015 0.012948 0.0023112 -8.09545e-005 4.77083e-015 3.18055e-015 -7.95139e-016 0 0 -2.38542e-015 0.0163282 0.00302908 -0.000886726 1.59028e-015 1.27222e-014 -0 0 0 -2.38542e-015 0.01459 0.00367178 -0.00326641 3.18055e-015 0 7.95139e-016 0 0 -2.38542e-015 -3.18055e-015 -9.54166e-015 -0 -4.77083e-015 0 -0 -8.92975 -31.1684 -19.883 -173.585 76.449 171.161 19.3901 43.2014 -27.3742 7.95139e-016 0 -0 8.74066 -31.0278 19.6689 174.063 76.6866 -171.554 -18.7501 42.1441 26.8227 7.15625e-015 6.36111e-015 -3.18055e-015 
1.6433 29.6703 -2.16594 -6.56131e-009 28.9934 1.35366e-008 -0.292821 2.62691 -0.588801 -0.559455 5.25668 -1.16598 -0.559455 5.25666 -1.16598 -8.96686e-006 -19.0046 -1.05577e-005 -6.16151e-007 15.152 -2.28381e-007 -13.4097 -6.38119 -29.2888 41.5512 -16.2179 19.6406 -82.0371 -33.4032 -54.085 53.3219 -20.6119 6.19136 -1.56248e-007 -1.58521e-007 4.33591e-006 0 0 -0 0 1.59028e-015 -0 -1.56248e-007 -1.58521e-007 4.33591e-006 -0.0128369 0.00232817 8.40348e-005 -1.59028e-015 3.18055e-015 -3.97569e-016 -1.56248e-007 -1.58521e-007 4.33591e-006 -0.0160478 0.00297818 0.000858244 2.84087e-006 -5.23704e-007 2.49853e-006 -1.56248e-007 -1.58521e-007 4.33591e-006 -0.0126317 0.0031342 0.0028431 -8.34888e-007 -1.99796e-005 1.61044e-006 -1.56248e-007 -1.58521e-007 4.33591e-006 0 0 -0 0 1.59028e-015 -0 9.43649 -7.60782 22.6668 -39.5961 -17.6528 -15.6054 81.9173 -33.755 54.6025 -45.4352 -19.4085 -7.07939 3.18055e-015 3.18055e-015 -2.38542e-015 1.59028e-015 9.54166e-015 -3.18055e-015 -5.09661e-007 -2.00413e-005 -2.59402e-006 3.18055e-015 3.18055e-015 -2.38542e-015 0.012939 0.00229336 -8.72215e-005 -2.48141e-006 -8.2357e-007 -3.06246e-006 3.18055e-015 3.18055e-015 -2.38542e-015 0.0163304 0.00301641 -0.000873729 -2.48132e-006 -6.9826e-007 -3.0625e-006 3.18055e-015 3.18055e-015 -2.38542e-015 0.014572 0.00365269 -0.00326262 -4.57186e-006 -1.53577e-006 -2.53716e-006 3.18055e-015 3.18055e-015 -2.38542e-015 1.59028e-015 9.54166e-015 -3.18055e-015 -5.09661e-007 -2.00413e-005 -2.59402e-006 -8.95335 -31.3682 -19.928 -173.6 76.262 171.163 19.3981 43.1948 -27.3842 -2.05413e-006 4.08734e-006 -9.57889e-007 8.76442 -31.2263 19.7145 174.068 76.4987 -171.548 -18.7577 42.1371 26.8326 -2.38542e-015 2.09299e-008 -1.59028e-015 
